<!-- Generator: Adobe Illustrator 22.1.0, SVG Export Plug-In  -->
<svg version="1.1"
	 xmlns="http://www.w3.org/2000/svg" xmlns:xlink="http://www.w3.org/1999/xlink" xmlns:a="http://ns.adobe.com/AdobeSVGViewerExtensions/3.0/"
	 x="0px" y="0px" width="301px" height="97.901px" viewBox="0 0 301 97.901" style="enable-background:new 0 0 301 97.901;"
	 xml:space="preserve">
<style type="text/css">
	.st0{fill:none;}
	.st1{fill:url(#SVGID_1_);}
	.st2{fill:url(#SVGID_2_);}
	.st3{fill:url(#SVGID_3_);}
	.st4{fill:#21A0DB;}
	.st5{fill:url(#SVGID_4_);}
	.st6{fill:url(#SVGID_5_);}
	.st7{fill:url(#SVGID_6_);}
</style>
<defs>
</defs>
<g>
	<g>
		<polygon class="st0" points="20.557,36.6 20.557,61.643 42.245,74.164 63.933,61.643 63.933,36.6 42.245,24.078 20.557,36.6 
			0,24.475 0,24.475 		"/>
		<polygon class="st0" points="42.392,97.901 42.392,97.901 42.392,97.901 		"/>
		<polygon class="st0" points="0,24.475 0,24.475 0,24.475 		"/>
		
			<linearGradient id="SVGID_1_" gradientUnits="userSpaceOnUse" x1="-30.754" y1="-244.1282" x2="-29.7267" y2="-244.1282" gradientTransform="matrix(40.1767 -72.0818 -72.0818 -40.1767 -16313.3438 -11923.9033)">
			<stop  offset="0" style="stop-color:#44AEE3"/>
			<stop  offset="1" style="stop-color:#00334D"/>
		</linearGradient>
		<polygon class="st1" points="63.933,61.643 42.245,74.164 42.392,97.901 42.392,97.901 84.785,73.426 84.785,36.6 84.785,24.475 
			63.933,36.6 		"/>
		
			<linearGradient id="SVGID_2_" gradientUnits="userSpaceOnUse" x1="-30.6215" y1="-242.8047" x2="-29.6107" y2="-242.8047" gradientTransform="matrix(-41.3584 -72.968 -72.968 41.3584 -18946.8066 7908.7866)">
			<stop  offset="0" style="stop-color:#00334D"/>
			<stop  offset="1" style="stop-color:#44AEE3"/>
		</linearGradient>
		<polygon class="st2" points="42.245,74.164 20.557,61.643 20.557,36.6 0,24.475 0,24.475 0,36.6 0,73.426 42.392,97.901 
			42.392,97.901 		"/>
		
			<linearGradient id="SVGID_3_" gradientUnits="userSpaceOnUse" x1="-29.5815" y1="-244.8707" x2="-28.5815" y2="-244.8707" gradientTransform="matrix(84.7847 0 0 -84.7847 2508.0601 -20742.9961)">
			<stop  offset="0" style="stop-color:#355166"/>
			<stop  offset="1" style="stop-color:#44AEE3"/>
		</linearGradient>
		<polygon class="st3" points="20.557,36.6 42.245,24.078 63.933,36.6 84.785,24.475 42.392,0 0,24.475 		"/>
	</g>
	<path class="st4" d="M290.842,40.859c0,0.057,0.143,0.428,0.143,0.485v7.847h-2.14v-7.818l0.171-0.514h-1.598v-2.254h5.022v2.254
		H290.842z M295.75,43.512h-0.228v5.678h-2.14V38.604h1.94l1.684,3.994h0.371l1.712-3.994H301V49.19h-2.111v-5.678h-0.257
		l-0.456,1.712h-1.94L295.75,43.512z"/>
	<g>
		<path class="st4" d="M103.247,41.348c-2.212,0-2.212,3.275-2.212,7.504s0,7.504,2.212,7.504c1.456,0,2.604-0.196,4.06-0.28v2.717
			c-1.4,0.168-2.52,0.504-3.92,0.504c-5.096,0-5.096-4.677-5.096-10.444c0-5.712,0-10.248,5.096-10.248l3.892,0.896
			c-0.308,2.156-0.84,2.492-3.248,2.044L103.247,41.348z"/>
		<path class="st4" d="M115.007,38.604c4.116,0,5.376,3.136,5.376,10.248s-0.952,10.444-5.376,10.444
			c-4.424,0-5.46-3.332-5.46-10.444S110.863,38.604,115.007,38.604z M115.007,56.805c2.156,0,2.772-2.94,2.772-7.924
			c0-4.984-0.868-7.784-2.772-7.784c-1.932,0-2.8,2.744-2.8,7.756S112.823,56.805,115.007,56.805z"/>
		<path class="st4" d="M133.403,44.652h-0.084l-2.072,5.013l-0.756,1.399h-1.848l-0.756-1.399l-2.128-5.041h-0.084v12.769
			c0,1.708-0.028,1.708-2.016,1.708h-0.616V38.94h0.644c1.792,0,1.82,0,2.548,1.54l3.052,6.972h0.56l3.752-8.512h0.42
			c2.016,0,2.044,0,2.044,1.708V59.1h-0.616c-1.988,0-2.016,0-2.016-1.708L133.403,44.652z"/>
		<path class="st4" d="M141.776,46.305l-0.252,0.7h5.684v2.492h-5.656l0.225,0.644v8.96h-0.7c-2.017,0-2.044,0-2.044-1.708V38.94
			h8.512v2.38h-6.02l0.252,0.7V46.305z"/>
		<path class="st4" d="M155.243,38.604c4.115,0,5.376,3.136,5.376,10.248s-0.952,10.444-5.376,10.444
			c-4.425,0-5.46-3.332-5.46-10.444S151.099,38.604,155.243,38.604z M155.243,56.805c2.155,0,2.771-2.94,2.771-7.924
			c0-4.984-0.868-7.784-2.771-7.784c-1.933,0-2.801,2.744-2.801,7.756S153.059,56.805,155.243,56.805z"/>
		<path class="st4" d="M166.387,57.392c0,1.708-0.028,1.708-2.017,1.708h-0.672V38.912l4.004-0.308c4.929,0,4.929,2.24,4.929,5.712
			c0,2.968-0.252,5.32-2.464,5.572l4.451,9.212h-0.924c-1.904,0-2.268-0.252-2.828-1.484l-3.443-7.644h-1.316l0.252,0.7
			L166.387,57.392z M166.359,46.836l-0.224,0.645h1.624c2.155,0,2.155-0.896,2.155-3.164c0-2.296,0-3.22-2.155-3.22h-1.652
			l0.252,0.7V46.836z"/>
		<path class="st4" d="M181.366,41.32l0.253,0.7v15.372c0,1.708-0.028,1.708-2.045,1.708h-0.672V42.02l0.196-0.7h-3.36v-2.38h9.044
			v2.38H181.366z"/>
		<path class="st4" d="M198.25,56.608c2.016,0,2.016,0.141,2.016,2.492h-8.764v-2.072l5.824-15.708h-5.824
			c0-2.352,0-2.352,1.68-2.352l7.168-0.028v1.904l-5.964,15.764H198.25z"/>
		<path class="st4" d="M208.05,38.604c4.115,0,5.376,3.136,5.376,10.248s-0.952,10.444-5.376,10.444
			c-4.425,0-5.46-3.332-5.46-10.444S203.906,38.604,208.05,38.604z M208.05,56.805c2.155,0,2.771-2.94,2.771-7.924
			c0-4.984-0.868-7.784-2.771-7.784c-1.933,0-2.801,2.744-2.801,7.756S205.865,56.805,208.05,56.805z"/>
		<path class="st4" d="M222.974,52.94h0.14v-14h0.616c1.987,0,2.016,0,2.016,1.708V59.1h-0.84c-1.848,0-1.932,0-2.464-1.568
			l-3.612-12.096h-0.14v11.956c0,1.708-0.028,1.708-2.017,1.708h-0.588V38.94h0.616c1.848,0,1.848,0,2.436,1.568L222.974,52.94z"/>
		<path class="st4" d="M231.457,55.908l-0.252,0.7h6.3V59.1h-8.792V38.94h8.513v2.38h-6.021l0.252,0.7v4.284l-0.252,0.7h5.685v2.492
			h-5.656l0.224,0.644V55.908z"/>
		<path class="st4" d="M245.961,59.1h-0.616V38.912l4.536-0.308c5.46,0,5.46,2.24,5.46,5.712c0,3.444-0.056,5.656-5.432,5.656
			h-1.933v7.42C247.977,59.1,247.977,59.1,245.961,59.1z M249.909,47.48c2.716,0,2.716-0.896,2.716-3.164c0-2.296,0-3.22-2.716-3.22
			h-2.156l0.224,0.7v5.039l-0.224,0.645H249.909z"/>
		<path class="st4" d="M261.109,57.392c0,1.708-0.028,1.708-2.017,1.708h-0.672V38.912l4.004-0.308c4.929,0,4.929,2.24,4.929,5.712
			c0,2.968-0.252,5.32-2.464,5.572l4.451,9.212h-0.924c-1.904,0-2.268-0.252-2.828-1.484l-3.443-7.644h-1.316l0.252,0.7
			L261.109,57.392z M261.08,46.836l-0.224,0.645h1.624c2.155,0,2.155-0.896,2.155-3.164c0-2.296,0-3.22-2.155-3.22h-1.652l0.252,0.7
			V46.836z"/>
		<path class="st4" d="M276.761,38.604c4.115,0,5.376,3.136,5.376,10.248s-0.952,10.444-5.376,10.444
			c-4.425,0-5.46-3.332-5.46-10.444S272.616,38.604,276.761,38.604z M276.761,56.805c2.155,0,2.771-2.94,2.771-7.924
			c0-4.984-0.868-7.784-2.771-7.784c-1.933,0-2.801,2.744-2.801,7.756S274.576,56.805,276.761,56.805z"/>
	</g>
</g>
</svg>